<svg width="71" height="30" viewBox="0 0 71 30" fill="none" xmlns="http://www.w3.org/2000/svg">
<path d="M15.7727 13.4563C15.8356 13.5027 15.8513 13.5645 15.8041 13.6418C15.757 13.7191 15.7099 13.75 15.647 13.75H11.3103C11.2475 13.75 11.2003 13.7191 11.1532 13.6727L6.61223 7.79851L5.76374 8.63326V10.8747C5.76374 11.8795 6.10942 12.7297 6.80078 13.4408C6.86363 13.5027 6.87934 13.5645 6.8322 13.6418C6.80078 13.7191 6.73793 13.75 6.65936 13.75H0.908523C0.814247 13.75 0.767109 13.7191 0.735683 13.6418C0.704258 13.5645 0.719971 13.5027 0.782821 13.4408C1.47418 12.7297 1.81986 11.8795 1.81986 10.8747V3.42377C1.81986 2.43443 1.47418 1.58422 0.782821 0.857675C0.719971 0.8113 0.704258 0.749466 0.735683 0.672174C0.767109 0.594882 0.829959 0.563965 0.908523 0.563965H6.65936C6.73793 0.563965 6.78507 0.594882 6.8322 0.672174C6.86363 0.749466 6.86363 0.8113 6.80078 0.857675C6.10942 1.58422 5.76374 2.43443 5.76374 3.42377V7.76759L6.7065 6.82463L10.2261 3.1919C10.8075 2.58902 11.1218 2.10981 11.1846 1.76972C11.216 1.56876 11.1846 1.39872 11.0589 1.27505C10.9489 1.13593 10.7604 1.05863 10.4933 1.01226L10.289 0.965884C10.1947 0.950425 10.1319 0.888592 10.1319 0.780383V0.749466C10.1319 0.625799 10.1947 0.563965 10.3204 0.563965H15.5056C15.6313 0.563965 15.6942 0.625799 15.6942 0.749466V0.842216C15.6942 0.950425 15.6313 1.01226 15.5213 1.02772L15.3956 1.04318C14.4529 1.21322 13.6201 1.50693 12.8973 1.90885C12.1745 2.31077 11.436 2.88273 10.6818 3.64019L9.20482 5.13966L9.26767 5.21695L14.17 11.524C14.6728 12.1887 15.2071 12.8225 15.7727 13.4563Z" fill="#111928"/>
<path d="M32.4125 13.3944C32.491 13.4717 32.5067 13.549 32.4753 13.6263C32.4439 13.7036 32.3653 13.75 32.2711 13.75H25.8289C25.7189 13.75 25.656 13.7036 25.6246 13.6263C25.5932 13.549 25.6089 13.4563 25.6874 13.3944L25.8603 13.1935C26.5516 12.4824 26.8973 11.6476 26.8973 10.6583V6.62364C26.8973 5.81981 26.7402 5.21693 26.4102 4.79955C26.0803 4.38217 25.5303 4.16575 24.7447 4.1503C23.7548 4.13484 22.9377 4.59859 22.2621 5.55701V8.95787V8.97332V10.6583C22.2621 11.6322 22.6078 12.4824 23.2991 13.1935L23.472 13.3944C23.5505 13.4717 23.5662 13.549 23.5348 13.6263C23.5034 13.7036 23.4248 13.75 23.3305 13.75H16.8883C16.7784 13.75 16.7155 13.7036 16.6841 13.6263C16.6526 13.549 16.6684 13.4563 16.7469 13.3944L16.9198 13.1935C17.6111 12.4824 17.9568 11.6476 17.9568 10.6583V7.87578C17.9411 6.96373 17.6897 6.12897 17.2026 5.37151L16.7155 4.59859C16.6684 4.53676 16.6526 4.49038 16.6841 4.42855C16.6998 4.36671 16.7469 4.32034 16.8098 4.30488C17.7997 3.84113 18.601 3.45467 19.2295 3.13004C19.5438 2.97546 20.4394 2.48079 21.9635 1.66149C22.0421 1.61512 22.1049 1.61512 22.1835 1.66149C22.2621 1.70787 22.2935 1.7697 22.2935 1.83153V4.66042C22.9691 3.64017 23.7391 2.89816 24.6033 2.44987C25.3418 2.07887 26.1745 1.89337 27.1173 1.89337C28.2015 1.89337 29.0657 2.09433 29.6942 2.49625C30.307 2.88271 30.7312 3.37738 30.9512 3.94934C31.1712 4.53676 31.2812 5.2633 31.2812 6.12897V10.6892C31.2812 11.6631 31.6268 12.4978 32.3182 13.1935L32.4125 13.3944Z" fill="#111928"/>
<path d="M45.8468 3.53197C47.0566 4.62952 47.6694 6.09807 47.6694 7.95308C47.6694 9.76172 46.9781 11.2303 45.5796 12.3896C44.1655 13.549 42.4057 14.121 40.2845 14.121C38.2261 14.121 36.592 13.5799 35.3821 12.4824C34.1722 11.3849 33.5594 9.90084 33.5594 8.04583C33.5594 6.2372 34.2508 4.76865 35.6492 3.60926C37.0634 2.46534 38.8232 1.89338 40.9444 1.89338C42.9871 1.87792 44.6212 2.43442 45.8468 3.53197ZM41.7615 13.1935C42.3428 13.1471 42.7671 12.7761 43.0185 12.0496C43.2542 11.3539 43.3327 10.3646 43.2385 9.06609C43.1285 7.44295 42.7199 5.9744 41.9814 4.69135C41.2587 3.42376 40.473 2.78997 39.6245 2.78997C39.5931 2.78997 39.5617 2.78997 39.5146 2.78997C38.9175 2.83634 38.4775 3.2228 38.2104 3.93389C37.959 4.62952 37.8804 5.61886 37.9747 6.90191C38.0847 8.5405 38.5089 10.0091 39.2474 11.2921C40.0174 12.6215 40.8501 13.2553 41.7615 13.1935Z" fill="#111928"/>
<path d="M70.7043 2.3726C70.7357 2.46535 70.72 2.54264 70.6414 2.60448C69.6044 3.51653 68.8502 4.61407 68.3788 5.91258L65.5662 13.5954C65.5191 13.7036 65.4562 13.75 65.3462 13.75C64.482 13.7036 63.5864 13.7036 62.6594 13.75C62.5494 13.75 62.4865 13.7036 62.4551 13.6263L60.161 8.64872C60.1453 8.63326 60.1453 8.6178 60.1453 8.60235L59.2497 6.65458L56.61 13.5954C56.5628 13.7036 56.5 13.75 56.39 13.75C55.5258 13.7036 54.6302 13.7036 53.7031 13.75C53.5931 13.75 53.5303 13.7036 53.4832 13.6263L51.2834 8.64872C51.2834 8.63326 51.2834 8.6178 51.2677 8.60235L49.8221 5.35608C49.6021 4.78412 49.3664 4.28945 49.115 3.88753C48.8636 3.48561 48.5337 3.13006 48.1094 2.80544L47.8423 2.60448C47.748 2.54264 47.7323 2.46535 47.7637 2.3726C47.7952 2.27985 47.8737 2.21802 47.968 2.21802H54.583C54.6773 2.21802 54.7402 2.24893 54.7716 2.32623C54.803 2.40352 54.8187 2.46535 54.7873 2.54264L54.6773 2.7436C54.2845 3.40832 54.2688 4.21215 54.6616 5.17058L56.9242 10.8593L57.0342 10.5346L58.8097 5.71162L58.6526 5.37154C58.4169 4.79957 58.1655 4.3049 57.9141 3.90299C57.6627 3.50107 57.317 3.14552 56.8928 2.8209L56.6257 2.61994C56.5314 2.5581 56.5 2.48081 56.5314 2.38806C56.5628 2.29531 56.6414 2.24893 56.7514 2.24893H63.3664C63.445 2.24893 63.4921 2.27985 63.5393 2.34168C63.5864 2.40352 63.5864 2.48081 63.5393 2.54264L63.4293 2.7436C63.0679 3.40832 63.0679 4.21215 63.445 5.17058L65.8019 10.8593L65.9119 10.5346L67.7817 5.27879C67.9388 4.81503 67.986 4.35128 67.9074 3.87207C67.8288 3.39286 67.656 2.96002 67.3574 2.57356C67.2946 2.49627 67.2946 2.43444 67.326 2.35714C67.3574 2.27985 67.4203 2.24893 67.5146 2.24893H70.4686C70.5943 2.24893 70.6571 2.29531 70.7043 2.3726Z" fill="#111928"/>
<path d="M15.7884 21.9275C15.9141 21.9275 15.977 21.9893 15.977 22.113V23.5042C15.977 23.6279 15.9141 23.6898 15.7884 23.6898H10.619C10.4933 23.6898 10.4304 23.6279 10.4304 23.5042V22.113C10.4304 21.9893 10.4933 21.9275 10.619 21.9275H15.7884Z" fill="#111928"/>
<path d="M31.1554 26.3332C31.1554 27.338 31.5011 28.1882 32.2082 28.8993C32.2553 28.9611 32.271 29.0229 32.2396 29.1002C32.2082 29.1775 32.161 29.2084 32.0825 29.2084H27.4315H27.4158H26.3159C26.2374 29.2084 26.1902 29.1775 26.1588 29.1002C26.1274 29.0229 26.1431 28.9611 26.1902 28.8993C26.8973 28.1882 27.243 27.338 27.243 26.3332V22.685H22.0264V26.3332C22.0264 27.338 22.372 28.1882 23.0634 28.8993C23.1262 28.9611 23.1419 29.0229 23.0948 29.1002C23.0634 29.1775 23.0005 29.2084 22.922 29.2084H18.271H18.2553H17.1868C17.0926 29.2084 17.0454 29.1775 17.014 29.1002C16.9826 29.0229 16.9983 28.9611 17.0611 28.8993C17.7525 28.1882 18.0982 27.338 18.0982 26.3332V18.8822C18.0982 17.8929 17.7525 17.0427 17.0611 16.3161C16.9983 16.2697 16.9826 16.2079 17.014 16.1306C17.0454 16.0533 17.1083 16.0224 17.1868 16.0224H22.9377C23.0162 16.0224 23.0634 16.0533 23.1105 16.1306C23.1419 16.2079 23.1419 16.2697 23.0791 16.3161C22.3877 17.0272 22.0421 17.8929 22.0421 18.8822V21.9121H27.2587V18.8822C27.2587 17.8929 26.913 17.0427 26.2059 16.3161C26.1588 16.2697 26.1431 16.2079 26.1745 16.1306C26.2059 16.0533 26.2531 16.0224 26.3316 16.0224H32.0825C32.1767 16.0224 32.2239 16.0533 32.2553 16.1306C32.2867 16.2079 32.271 16.2697 32.2239 16.3161C31.5168 17.0272 31.1711 17.8929 31.1711 18.8822V22.2058V23.0405V26.3332H31.1554Z" fill="#111928"/>
<path d="M45.8468 18.9904C47.0566 20.088 47.6694 21.5565 47.6694 23.4115C47.6694 25.2202 46.9781 26.6887 45.5796 27.8481C44.1655 29.0075 42.4057 29.5794 40.2845 29.5794C38.2261 29.5794 36.592 29.0384 35.3821 27.9408C34.1722 26.8433 33.5594 25.3593 33.5594 23.5043C33.5594 21.6956 34.2508 20.2271 35.6492 19.0677C37.0634 17.9238 38.8232 17.3518 40.9444 17.3518C42.9871 17.3364 44.6212 17.8929 45.8468 18.9904ZM41.7615 28.6519C42.3428 28.6055 42.7671 28.2345 43.0185 27.508C43.2542 26.8124 43.3327 25.823 43.2385 24.5245C43.1285 22.9014 42.7199 21.4328 41.9814 20.1498C41.2587 18.8822 40.473 18.2484 39.6245 18.2484C39.5931 18.2484 39.5617 18.2484 39.5146 18.2484C38.9175 18.2948 38.4775 18.6812 38.2104 19.3923C37.959 20.088 37.8804 21.0773 37.9747 22.3603C38.0847 23.9989 38.5089 25.4675 39.2474 26.7505C40.0174 28.08 40.8501 28.7138 41.7615 28.6519Z" fill="#111928"/>
<path d="M70.7043 17.831C70.7357 17.9238 70.72 18.0011 70.6414 18.0629C69.6044 18.975 68.8502 20.0725 68.3788 21.371L65.5662 29.0539C65.5191 29.1621 65.4562 29.2084 65.3462 29.2084C64.482 29.1621 63.5864 29.1621 62.6594 29.2084C62.5494 29.2084 62.4865 29.1621 62.4551 29.0848L60.161 24.1072C60.1453 24.0917 60.1453 24.0762 60.1453 24.0608L59.2497 22.113L56.61 29.0539C56.5628 29.1621 56.4843 29.2084 56.39 29.2084C55.5258 29.1621 54.6302 29.1621 53.7031 29.2084C53.5931 29.2084 53.5303 29.1621 53.4832 29.0848L51.2834 24.1072C51.2834 24.0917 51.2834 24.0762 51.2677 24.0608L49.8221 20.8145C49.6021 20.2426 49.3664 19.7479 49.115 19.346C48.8636 18.944 48.5337 18.5885 48.1094 18.2639L47.8423 18.0629C47.748 18.0011 47.7323 17.9238 47.7637 17.831C47.7952 17.7383 47.8737 17.6765 47.968 17.6765H54.583C54.6773 17.6765 54.7402 17.7074 54.7716 17.7847C54.803 17.862 54.8187 17.9238 54.7873 18.0011L54.6773 18.202C54.2845 18.8668 54.2688 19.6706 54.6616 20.629L56.9242 26.3177L57.0342 25.9931L58.8097 21.1701L58.6526 20.83C58.4169 20.258 58.1655 19.7633 57.9141 19.3614C57.6627 18.9595 57.317 18.604 56.8928 18.2793L56.6257 18.0784C56.5314 18.0165 56.5 17.9392 56.5314 17.8465C56.5628 17.7537 56.6257 17.7074 56.7514 17.7074H63.3664C63.445 17.7074 63.4921 17.7383 63.5393 17.8001C63.5864 17.862 63.5864 17.9392 63.5393 18.0011L63.4293 18.202C63.0679 18.8668 63.0679 19.6706 63.445 20.629L65.8019 26.3177L65.9119 25.9931L67.7817 20.7372C67.9388 20.2735 67.986 19.8097 67.9074 19.3305C67.8288 18.8513 67.656 18.4185 67.3574 18.032C67.2946 17.9547 67.2946 17.8929 67.326 17.8156C67.3574 17.7383 67.4203 17.7074 67.5146 17.7074H70.4686C70.5943 17.7074 70.6571 17.7537 70.7043 17.831Z" fill="#111928"/>
</svg>
